<?xml version="1.0" encoding="utf-8"?>
<?xml-stylesheet type="text/xsl" href="rss1.xsl"?>
<rss version="2.0" xmlns:atom="http://www.w3.org/2005/Atom" xmlns:content="http://purl.org/rss/1.0/modules/content/" xmlns:dc="http://purl.org/dc/elements/1.1/" xmlns:media="http://search.yahoo.com/mrss/">
<channel>
 <title>Getty</title>
 <link>http://www.gettyimg.com/</link>
 <atom:link href="http://www.gettyimg.com/" rel="self" type="application/rss+xml" />

 
                <item>
                <title><![CDATA[【Live Audios (lossy)】MP3 - Jão mita festival]]></title>
                <link><![CDATA[https://sharemania.us/threads/j%C3%A3o-mita-festival.249328/]]></link>
                <description><![CDATA[<article>
<blockquote class="messageText SelectQuoteContainer ugc baseHtml">
<div class="bbCodeBlock bbCodeVfcHH HiddenContent">
<div class="attribution type">Hidden Content:</div>
<blockquote>You must reply before you can see the hidden data contained here.</blockquote>
</div>
<div class="messageTextEndMarker">&nbsp;</div>
</blockquote>
</article>]]></description>
                <author><![CDATA[brendo098]]></author>
                </item>

                
                <item>
                <title><![CDATA[【Live Audios (lossy)】MP3 - Imagine Dragons Pukkelpop 2018]]></title>
                <link><![CDATA[https://sharemania.us/threads/imagine-dragons-pukkelpop-2018.249334/]]></link>
                <description><![CDATA[<article>
<blockquote class="messageText SelectQuoteContainer ugc baseHtml">
<div class="bbCodeBlock bbCodeVfcHH HiddenContent">
<div class="attribution type">Hidden Content:</div>
<blockquote>You must reply before you can see the hidden data contained here.</blockquote>
</div>
<div class="messageTextEndMarker">&nbsp;</div>
</blockquote>
</article>]]></description>
                <author><![CDATA[brendo098]]></author>
                </item>

                
                <item>
                <title><![CDATA[【Apple Music】WEB-RiP - VIZE &amp; Leony - Paradise (1080p)]]></title>
                <link><![CDATA[https://sharemania.us/threads/vize-leony-paradise-1080p.249333/]]></link>
                <description><![CDATA[<article>
<blockquote class="messageText SelectQuoteContainer ugc baseHtml">
<img src="https://i.postimg.cc/v84nvmFg/VIZE-Leony-Paradise-mp4.jpg" class="bbCodeImage LbImage" alt="[​IMG]" data-url="https://i.postimg.cc/v84nvmFg/VIZE-Leony-Paradise-mp4.jpg" style=""><br>
<br>
<div class="bbCodeBlock bbCodeCode">
<div class="type">Code:</div>
<pre>General
Complete name                  : G:\Новая папка\VIZE &amp; Leony - Paradise.mp4
Format                         : MPEG-4
Format profile                 : Base Media
Codec ID                       : isom (isom/iso2/avc1/mp41)
File size                      : 234 MiB
Duration                       : 3 min 6 s
Overall bit rate               : 10.5 Mb/s
Frame rate                     : 25.000 FPS
Movie name                     : Paradise
Performer                      : VIZE &amp; Leony
Genre                          : Dance
ContentType                    : Music Video
Recorded date                  : 2020-08-28 07:00:00 UTC
Writing application            : Lavf56.30.100
Copyright                      : ℗ 2020 Kontor Records GmbH

Video
ID                             : 1
Format                         : AVC
Format/Info                    : Advanced Video Codec
Format profile                 : High@L4
Format settings                : CABAC / 4 Ref Frames
Format settings, CABAC         : Yes
Format settings, Reference fra : 4 frames
Format settings, Slice count   : 8 slices per frame
Codec ID                       : avc1
Codec ID/Info                  : Advanced Video Coding
Duration                       : 3 min 6 s
Bit rate                       : 10.3 Mb/s
Width                          : 1 920 pixels
Height                         : 1 080 pixels
Display aspect ratio           : 16:9
Frame rate mode                : Constant
Frame rate                     : 25.000 FPS
Color space                    : YUV
Chroma subsampling             : 4:2:0
Bit depth                      : 8 bits
Scan type                      : Progressive
Bits/(Pixel*Frame)             : 0.198
Stream size                    : 228 MiB (98%)
Color range                    : Limited
Color primaries                : BT.709
Transfer characteristics       : BT.709
Matrix coefficients            : BT.709
Codec configuration box        : avcC

Audio
ID                             : 2
Format                         : AAC LC
Format/Info                    : Advanced Audio Codec Low Complexity
Codec ID                       : mp4a-40-2
Duration                       : 3 min 6 s
Duration_LastFrame             : -20 ms
Bit rate mode                  : Constant
Bit rate                       : 246 kb/s
Channel(s)                     : 2 channels
Channel layout                 : L R
Sampling rate                  : 48.0 kHz
Frame rate                     : 46.875 FPS (1024 SPF)
Compression mode               : Lossy
Stream size                    : 5.48 MiB (2%)
Default                        : Yes
Alternate group                : 1

</pre>
</div>
<div class="bbCodeBlock bbCodeVfcHH HiddenContent">
<div class="attribution type">Hidden Content:</div>
<blockquote>You must either reply or click 'Like' to see the hidden information contained here.</blockquote>
</div>
<div class="messageTextEndMarker">&nbsp;</div>
</blockquote>
</article>]]></description>
                <author><![CDATA[vitalya3]]></author>
                </item>

                
                <item>
                <title><![CDATA[【Albums (lossless)】ALAC - Kehlani - CRASH | Apple Music | Apple Digital Master | .M4A 24bits ／ 44.1kHz]]></title>
                <link><![CDATA[https://sharemania.us/threads/kehlani-crash-apple-music-apple-digital-master-m4a-24bits-%EF%BC%8F-44-1khz.249331/]]></link>
                <description><![CDATA[<article>
<blockquote class="messageText SelectQuoteContainer ugc baseHtml">
<div style="text-align: center"><img src="https://i.imgur.com/eTHFhHx.jpeg" class="bbCodeImage LbImage" alt="[​IMG]" data-url="https://i.imgur.com/eTHFhHx.jpeg" style=""> <br>
<br>
<span style="font-family: 'Book Antiqua'"><span style="font-size: 10px"><span style="color: #000000">
<div class="ToggleTriggerAnchor bbCodeSpoilerContainer">
<button type="button" class="button bbCodeSpoilerButton ToggleTrigger Tooltip JsOnly" data-target="> .SpoilerTarget"><span>Spoiler: <span class="SpoilerTitle">Animated Artwork</span></span></button>
<div class="SpoilerTarget bbCodeSpoilerText">
<div class="bbCodeBlock bbCodeVfcHH HiddenContent">
<div class="attribution type">Hidden Content:</div>
<blockquote>You must reply before you can see the hidden data contained here.</blockquote>
</div></div>
</div><br>
<div class="bbCodeBlock bbCodeVfcHH HiddenContent">
<div class="attribution type">Hidden Content:</div>
<blockquote>You must reply before you can see the hidden data contained here.</blockquote>
</div></span></span></span>​</div>
<div class="messageTextEndMarker">&nbsp;</div>
</blockquote>
</article>]]></description>
                <author><![CDATA[Nuric]]></author>
                </item>

                
                <item>
                <title><![CDATA[【Albums (lossless)】FLAC - Grimes - Visions (Japanese Edition) | CD Rip | .FLAC 16bits ／ 44.1kHz]]></title>
                <link><![CDATA[https://sharemania.us/threads/grimes-visions-japanese-edition-cd-rip-flac-16bits-%EF%BC%8F-44-1khz.249327/]]></link>
                <description><![CDATA[<article>
<blockquote class="messageText SelectQuoteContainer ugc baseHtml">
<div style="text-align: center"><img src="https://a5.mzstatic.com/us/r1000/0/Music126/v4/7d/b6/49/7db6498b-2e72-e620-204e-63123b6a2612/614027871361.png" class="bbCodeImage LbImage" alt="[​IMG]" data-url="https://a5.mzstatic.com/us/r1000/0/Music126/v4/7d/b6/49/7db6498b-2e72-e620-204e-63123b6a2612/614027871361.png" style=""> <br>
<br>
<span style="font-family: 'Book Antiqua'"><span style="font-size: 12px"><span style="color: #000000">contains the japanese bonus tracks "<b><i>Life After Death</i></b>" and "<b><i>Ambrosia</i></b>".<br>
</span></span><br>
<span style="font-size: 10px"><span style="color: #000000">
<div class="ToggleTriggerAnchor bbCodeSpoilerContainer">
<button type="button" class="button bbCodeSpoilerButton ToggleTrigger Tooltip JsOnly" data-target="> .SpoilerTarget"><span>Spoiler: <span class="SpoilerTitle">.log</span></span></button>
<div class="SpoilerTarget bbCodeSpoilerText">Exact Audio Copy V1.0 beta 3 from 29. August 2011 <br>
<br>
EAC extraction logfile from 7. June 2012, 10:07 <br>
<br>
Grimes / Visions (Japanese Edition) <br>
<br>
Used drive : PLEXTOR CD-R PREMIUM Adapter: 5 ID: 0 <br>
<br>
Read mode : Secure <br>
Utilize accurate stream : Yes <br>
Defeat audio cache : Yes <br>
Make use of C2 pointers : No <br>
<br>
Read offset correction : 30 <br>
Overread into Lead-In and Lead-Out : Yes <br>
Fill up missing offset samples with silence : Yes <br>
Delete leading and trailing silent blocks : No <br>
Null samples used in CRC calculations : Yes <br>
Used interface : Native Win32 interface for Win NT &amp; 2000 <br>
Gap handling : Appended to previous track <br>
<br>
Used output format : User Defined Encoder <br>
Selected bitrate : 1024 kBit/s <br>
Quality : High <br>
Add ID3 tag : No <br>
Command line compressor : C:\Program Files\Exact Audio Copy\Flac\flac.exe <br>
Additional command line options : -8 -V -T "ARTIST=%artist%" -T "TITLE=%title%" -T "ALBUM=%albumtitle%" -T "DATE=%year%" -T "TRACKNUMBER=%tracknr%" -T "GENRE=%genre%" -T "PERFORMER=%albuminterpret%" -T "COMPOSER=%composer%" %haslyrics%--tag-from-file=LYRICS="%lyricsfile%"%haslyrics% -T "ALBUMARTIST=%albumartist%" -T "ALBUM ARTIST=%albumartist%" -T "DISCNUMBER=%cdnumber%" -T "TOTALDISCS=%totalcds%" -T "TOTALTRACKS=%numtracks%" -T "COMMENT=%comment%" %source% -o %dest% <br>
<br>
<br>
TOC of the extracted CD <br>
<br>
Track | Start | Length | Start sector | End sector <br>
--------------------------------------------------------- <br>
1 | 0:00.00 | 1:35.14 | 0 | 7138 <br>
2 | 1:35.14 | 4:15.24 | 7139 | 26287 <br>
3 | 5:50.38 | 4:11.32 | 26288 | 45144 <br>
4 | 10:01.70 | 1:47.53 | 45145 | 53222 <br>
5 | 11:49.48 | 3:43.02 | 53223 | 69949 <br>
6 | 15:32.50 | 4:21.20 | 69950 | 89544 <br>
7 | 19:53.70 | 1:58.56 | 89545 | 98450 <br>
8 | 21:52.51 | 4:20.27 | 98451 | 117977 <br>
9 | 26:13.03 | 3:59.55 | 117978 | 135957 <br>
10 | 30:12.58 | 4:52.49 | 135958 | 157906 <br>
11 | 35:05.32 | 5:03.04 | 157907 | 180635 <br>
12 | 40:08.36 | 6:09.25 | 180636 | 208335 <br>
13 | 46:17.61 | 1:54.66 | 208336 | 216951 <br>
14 | 48:12.52 | 2:56.12 | 216952 | 230163 <br>
15 | 51:08.64 | 3:31.74 | 230164 | 246062 <br>
<br>
<br>
Track 1 <br>
<br>
Filename C:\EACRips\01 Infinite Love Without Fulfillment.wav <br>
<br>
Pre-gap length 0:00:02.00 <br>
<br>
Peak level 97.7 % <br>
Extraction speed 6.3 X <br>
Track quality 100.0 % <br>
Test CRC 634FA4A3 <br>
Copy CRC 634FA4A3 <br>
Track not present in AccurateRip database <br>
Copy OK <br>
<br>
Track 2 <br>
<br>
Filename C:\EACRips\02 Genesis.wav <br>
<br>
Peak level 97.7 % <br>
Extraction speed 6.5 X <br>
Track quality 99.9 % <br>
Test CRC 166E5AF1 <br>
Copy CRC 166E5AF1 <br>
Track not present in AccurateRip database <br>
Copy OK <br>
<br>
Track 3 <br>
<br>
Filename C:\EACRips\03 Oblivion.wav <br>
<br>
Peak level 97.7 % <br>
Extraction speed 7.9 X <br>
Track quality 100.0 % <br>
Test CRC 2908CD5D <br>
Copy CRC 2908CD5D <br>
Track not present in AccurateRip database <br>
Copy OK <br>
<br>
Track 4 <br>
<br>
Filename C:\EACRips\04 Eight.wav <br>
<br>
Pre-gap length 0:00:01.33 <br>
<br>
Peak level 97.7 % <br>
Extraction speed 8.0 X <br>
Track quality 100.0 % <br>
Test CRC 8273A180 <br>
Copy CRC 8273A180 <br>
Track not present in AccurateRip database <br>
Copy OK <br>
<br>
Track 5 <br>
<br>
Filename C:\EACRips\05 Circumambbient.wav <br>
<br>
Peak level 97.7 % <br>
Extraction speed 8.7 X <br>
Track quality 100.0 % <br>
Test CRC C7707D07 <br>
Copy CRC C7707D07 <br>
Track not present in AccurateRip database <br>
Copy OK <br>
<br>
Track 6 <br>
<br>
Filename C:\EACRips\06 Vowels = Space And Time.wav <br>
<br>
Peak level 97.7 % <br>
Extraction speed 8.3 X <br>
Track quality 99.9 % <br>
Test CRC 4049513A <br>
Copy CRC 4049513A <br>
Track not present in AccurateRip database <br>
Copy OK <br>
<br>
Track 7 <br>
<br>
Filename C:\EACRips\07 Visiting Statue.wav <br>
<br>
Peak level 97.7 % <br>
Extraction speed 9.2 X <br>
Track quality 100.0 % <br>
Test CRC DDA6D8AE <br>
Copy CRC DDA6D8AE <br>
Track not present in AccurateRip database <br>
Copy OK <br>
<br>
Track 8 <br>
<br>
Filename C:\EACRips\08 Be A Body.wav <br>
<br>
Peak level 97.7 % <br>
Extraction speed 10.1 X <br>
Track quality 100.0 % <br>
Test CRC 8CED8C1A <br>
Copy CRC 8CED8C1A <br>
Track not present in AccurateRip database <br>
Copy OK <br>
<br>
Track 9 <br>
<br>
Filename C:\EACRips\09 Colour Of Moonlight (Antiochus) (ft. Doldrums).wav <br>
<br>
Peak level 97.7 % <br>
Extraction speed 10.4 X <br>
Track quality 100.0 % <br>
Test CRC 5F71F415 <br>
Copy CRC 5F71F415 <br>
Track not present in AccurateRip database <br>
Copy OK <br>
<br>
Track 10 <br>
<br>
Filename C:\EACRips\10 Symphonia IX (My Wait Is U).wav <br>
<br>
Peak level 97.7 % <br>
Extraction speed 11.2 X <br>
Track quality 100.0 % <br>
Test CRC 8EF7FA8B <br>
Copy CRC 8EF7FA8B <br>
Track not present in AccurateRip database <br>
Copy OK <br>
<br>
Track 11 <br>
<br>
Filename C:\EACRips\11 Nightmusic (ft. Majical Cloudz).wav <br>
<br>
Peak level 97.7 % <br>
Extraction speed 11.7 X <br>
Track quality 100.0 % <br>
Test CRC E4C2920D <br>
Copy CRC E4C2920D <br>
Track not present in AccurateRip database <br>
Copy OK <br>
<br>
Track 12 <br>
<br>
Filename C:\EACRips\12 Skin.wav <br>
<br>
Peak level 97.7 % <br>
Extraction speed 12.4 X <br>
Track quality 100.0 % <br>
Test CRC DA76FFB2 <br>
Copy CRC DA76FFB2 <br>
Track not present in AccurateRip database <br>
Copy OK <br>
<br>
Track 13 <br>
<br>
Filename C:\EACRips\13 Know The Way (Outro).wav <br>
<br>
Peak level 97.7 % <br>
Extraction speed 8.7 X <br>
Track quality 99.9 % <br>
Test CRC 5FAA7C20 <br>
Copy CRC 5FAA7C20 <br>
Track not present in AccurateRip database <br>
Copy OK <br>
<br>
Track 14 <br>
<br>
Filename C:\EACRips\14 Life After Death.wav <br>
<br>
Pre-gap length 0:00:09.85 <br>
<br>
Peak level 97.7 % <br>
Extraction speed 12.6 X <br>
Track quality 100.0 % <br>
Test CRC 99E598BB <br>
Copy CRC 99E598BB <br>
Track not present in AccurateRip database <br>
Copy OK <br>
<br>
Track 15 <br>
<br>
Filename C:\EACRips\15 Ambrosia.wav <br>
<br>
Peak level 97.7 % <br>
Extraction speed 13.5 X <br>
Track quality 100.0 % <br>
Test CRC 5F7E6C1C <br>
Copy CRC 5F7E6C1C <br>
Track not present in AccurateRip database <br>
Copy OK <br>
<br>
<br>
None of the tracks are present in the AccurateRip database <br>
<br>
No errors occurred <br>
<br>
End of status report <br>
<br>
---- CUETools DB Plugin V2.1.3 <br>
<br>
[CTDB TOCID: fGM7JTuLspFPzEeaup5.pgxL6o0-] disk not present in database, Submit result: fGM7JTuLspFPzEeaup5.pgxL6o0- has been uploaded <br>
<br>
<br>
==== Log checksum AC86C63BD21FFA6DD1A1A0D6E18AE237C7B0DA030A903F8514557E7D567899FE ====</div>
</div></span></span><br>
<span style="font-size: 12px"><span style="color: #000000"><br>
<div class="bbCodeBlock bbCodeVfcHH HiddenContent">
<div class="attribution type">Hidden Content:</div>
<blockquote>You must reply before you can see the hidden data contained here.</blockquote>
</div></span></span></span><br>
​</div>
<div class="messageTextEndMarker">&nbsp;</div>
</blockquote>
</article>]]></description>
                <author><![CDATA[Nuric]]></author>
                </item>

                
                <item>
                <title><![CDATA[【Apple Music】WEB-RiP - Beata Kozidrak &amp; Kamil Bednarek - Biegiem (1080p)]]></title>
                <link><![CDATA[https://sharemania.us/threads/beata-kozidrak-kamil-bednarek-biegiem-1080p.249337/]]></link>
                <description><![CDATA[<article>
<blockquote class="messageText SelectQuoteContainer ugc baseHtml">
<img src="https://i.postimg.cc/50bV2yBP/Beata-Kozidrak-Kamil-Bednarek-Biegiem-mp4.jpg" class="bbCodeImage LbImage" alt="[​IMG]" data-url="https://i.postimg.cc/50bV2yBP/Beata-Kozidrak-Kamil-Bednarek-Biegiem-mp4.jpg" style=""><br>
<br>
<div class="bbCodeBlock bbCodeCode">
<div class="type">Code:</div>
<pre>General
Complete name                  : G:\Новая папка\Beata Kozidrak &amp; Kamil Bednarek - Biegiem.mp4
Format                         : MPEG-4
Format profile                 : Base Media
Codec ID                       : isom (isom/iso2/avc1/mp41)
File size                      : 242 MiB
Duration                       : 3 min 18 s
Overall bit rate               : 10.2 Mb/s
Frame rate                     : 25.000 FPS
Movie name                     : Biegiem
Performer                      : Beata Kozidrak &amp; Kamil Bednarek
Genre                          : Pop
ContentType                    : Music Video
Recorded date                  : 2021-08-14 07:00:00 UTC
Writing application            : Lavf56.30.100
Copyright                      : ℗ (C) 2021 Sony Music Entertainment Poland Sp. z o.o. na wylacznej licencji Beaty Kozidrak

Video
ID                             : 1
Format                         : AVC
Format/Info                    : Advanced Video Codec
Format profile                 : High@L4
Format settings                : CABAC / 4 Ref Frames
Format settings, CABAC         : Yes
Format settings, Reference fra : 4 frames
Format settings, Slice count   : 8 slices per frame
Codec ID                       : avc1
Codec ID/Info                  : Advanced Video Coding
Duration                       : 3 min 18 s
Bit rate                       : 9 966 kb/s
Width                          : 1 920 pixels
Height                         : 1 080 pixels
Display aspect ratio           : 16:9
Frame rate mode                : Constant
Frame rate                     : 25.000 FPS
Color space                    : YUV
Chroma subsampling             : 4:2:0
Bit depth                      : 8 bits
Scan type                      : Progressive
Bits/(Pixel*Frame)             : 0.192
Stream size                    : 236 MiB (97%)
Color range                    : Limited
Color primaries                : BT.709
Transfer characteristics       : BT.709
Matrix coefficients            : BT.709
Codec configuration box        : avcC

Audio
ID                             : 2
Format                         : AAC LC
Format/Info                    : Advanced Audio Codec Low Complexity
Codec ID                       : mp4a-40-2
Duration                       : 3 min 18 s
Duration_LastFrame             : -4 ms
Bit rate mode                  : Constant
Bit rate                       : 265 kb/s
Channel(s)                     : 2 channels
Channel layout                 : L R
Sampling rate                  : 48.0 kHz
Frame rate                     : 46.875 FPS (1024 SPF)
Compression mode               : Lossy
Stream size                    : 6.15 MiB (3%)
Default                        : Yes
Alternate group                : 1

</pre>
</div>
<div class="bbCodeBlock bbCodeVfcHH HiddenContent">
<div class="attribution type">Hidden Content:</div>
<blockquote>You must either reply or click 'Like' to see the hidden information contained here.</blockquote>
</div>
<div class="messageTextEndMarker">&nbsp;</div>
</blockquote>
</article>]]></description>
                <author><![CDATA[vitalya3]]></author>
                </item>

                
                <item>
                <title><![CDATA[【Apple Music】WEB-RiP - 50 Cent featuring Olivia - Candy Shop (Edited Version) (1080p)]]></title>
                <link><![CDATA[https://sharemania.us/threads/50-cent-featuring-olivia-candy-shop-edited-version-1080p.249330/]]></link>
                <description><![CDATA[<article>
<blockquote class="messageText SelectQuoteContainer ugc baseHtml">
<img src="https://i.postimg.cc/rm60p1sS/50-Cent-featuring-Olivia-Candy-Shop-Edited-Version-mp4.jpg" class="bbCodeImage LbImage" alt="[​IMG]" data-url="https://i.postimg.cc/rm60p1sS/50-Cent-featuring-Olivia-Candy-Shop-Edited-Version-mp4.jpg" style=""><br>
<br>
<div class="bbCodeBlock bbCodeCode">
<div class="type">Code:</div>
<pre>General
Complete name                  : G:\Новая папка\50 Cent featuring Olivia - Candy Shop (Edited Version).mp4
Format                         : MPEG-4
Format profile                 : Base Media
Codec ID                       : isom (isom/iso2/avc1/mp41)
File size                      : 298 MiB
Duration                       : 4 min 9 s
Overall bit rate               : 9 998 kb/s
Frame rate                     : 23.976 FPS
Movie name                     : Candy Shop (Edited Version)
Performer                      : 50 Cent featuring Olivia
Genre                          : Music Videos
ContentType                    : Music Video
Recorded date                  : 2005-01-01 08:00:00 UTC
Writing application            : Lavf56.30.100
Copyright                      : ℗ 2005 Shady Records/Aftermath Records/Interscope Records

Video
ID                             : 1
Format                         : AVC
Format/Info                    : Advanced Video Codec
Format profile                 : High@L4
Format settings                : CABAC / 5 Ref Frames
Format settings, CABAC         : Yes
Format settings, Reference fra : 5 frames
Format settings, Slice count   : 8 slices per frame
Codec ID                       : avc1
Codec ID/Info                  : Advanced Video Coding
Duration                       : 4 min 9 s
Bit rate                       : 9 745 kb/s
Width                          : 1 444 pixels
Height                         : 1 080 pixels
Display aspect ratio           : 4:3
Frame rate mode                : Constant
Frame rate                     : 23.976 (24000/1001) FPS
Color space                    : YUV
Chroma subsampling             : 4:2:0
Bit depth                      : 8 bits
Scan type                      : Progressive
Bits/(Pixel*Frame)             : 0.261
Stream size                    : 290 MiB (97%)
Language                       : English
Color range                    : Limited
Color primaries                : BT.709
Transfer characteristics       : BT.709
Matrix coefficients            : BT.709
Codec configuration box        : avcC

Audio
ID                             : 2
Format                         : AAC LC
Format/Info                    : Advanced Audio Codec Low Complexity
Codec ID                       : mp4a-40-2
Duration                       : 4 min 9 s
Duration_LastFrame             : -8 ms
Bit rate mode                  : Constant
Bit rate                       : 251 kb/s
Channel(s)                     : 2 channels
Channel layout                 : L R
Sampling rate                  : 48.0 kHz
Frame rate                     : 46.875 FPS (1024 SPF)
Compression mode               : Lossy
Stream size                    : 7.47 MiB (3%)
Default                        : Yes
Alternate group                : 1

</pre>
</div>
<div class="bbCodeBlock bbCodeVfcHH HiddenContent">
<div class="attribution type">Hidden Content:</div>
<blockquote>You must either reply or click 'Like' to see the hidden information contained here.</blockquote>
</div>
<div class="messageTextEndMarker">&nbsp;</div>
</blockquote>
</article>]]></description>
                <author><![CDATA[vitalya3]]></author>
                </item>

                
                <item>
                <title><![CDATA[【Live Audios (lossy)】MP3 - Melanie Martinez Cry Baby Tour Live in la]]></title>
                <link><![CDATA[https://sharemania.us/threads/melanie-martinez-cry-baby-tour-live-in-la.249335/]]></link>
                <description><![CDATA[<article>
<blockquote class="messageText SelectQuoteContainer ugc baseHtml">
<div class="bbCodeBlock bbCodeVfcHH HiddenContent">
<div class="attribution type">Hidden Content:</div>
<blockquote>You must reply before you can see the hidden data contained here.</blockquote>
</div>
<div class="messageTextEndMarker">&nbsp;</div>
</blockquote>
</article>]]></description>
                <author><![CDATA[brendo098]]></author>
                </item>

                
                <item>
                <title><![CDATA[【UPSCALED】Vanessa_Amorosi - Perfect (2160p)]]></title>
                <link><![CDATA[https://sharemania.us/threads/vanessa_amorosi-perfect-2160p.249336/]]></link>
                <description><![CDATA[<article>
<blockquote class="messageText SelectQuoteContainer ugc baseHtml">
<div style="text-align: center"><a href="https://ibb.co/mRFP1T6" target="_blank" class="externalLink" rel="nofollow"><img src="https://i.ibb.co/QJjxzQr/Vanessa-Amorosi-Perfect-Xvi-D-2008-RDU-1-chf3-iris2-mp4-thumbs.jpg" class="bbCodeImage LbImage" alt="[​IMG]" data-url="https://i.ibb.co/QJjxzQr/Vanessa-Amorosi-Perfect-Xvi-D-2008-RDU-1-chf3-iris2-mp4-thumbs.jpg"></a><br>
<a href="https://ibb.co/HdHw6MY" target="_blank" class="externalLink" rel="nofollow"><img src="https://i.ibb.co/hfmQbnH/Vanessa-Amorosi-Perfect-Xvi-D-2008-RDU-1-chf3-iris2-mp4-snapshot-00-36-913.jpg" class="bbCodeImage LbImage" alt="[​IMG]" data-url="https://i.ibb.co/hfmQbnH/Vanessa-Amorosi-Perfect-Xvi-D-2008-RDU-1-chf3-iris2-mp4-snapshot-00-36-913.jpg"></a><br>
<a href="https://ibb.co/VqjJnf6" target="_blank" class="externalLink" rel="nofollow"><img src="https://i.ibb.co/XC2j0cH/Vanessa-Amorosi-Perfect-Xvi-D-2008-RDU-1-chf3-iris2-mp4-snapshot-01-02-376.jpg" class="bbCodeImage LbImage" alt="[​IMG]" data-url="https://i.ibb.co/XC2j0cH/Vanessa-Amorosi-Perfect-Xvi-D-2008-RDU-1-chf3-iris2-mp4-snapshot-01-02-376.jpg"></a><br>
<a href="https://ibb.co/VMYZjsZ" target="_blank" class="externalLink" rel="nofollow"><img src="https://i.ibb.co/j3k26S2/Vanessa-Amorosi-Perfect-Xvi-D-2008-RDU-1-chf3-iris2-mp4-snapshot-01-44-399.jpg" class="bbCodeImage LbImage" alt="[​IMG]" data-url="https://i.ibb.co/j3k26S2/Vanessa-Amorosi-Perfect-Xvi-D-2008-RDU-1-chf3-iris2-mp4-snapshot-01-44-399.jpg"></a><br>
<br>
<div class="bbCodeBlock bbCodeVfcHH HiddenContent">
<div class="attribution type">Hidden Content:</div>
<blockquote>You must either reply or click 'Like' to see the hidden information contained here.</blockquote>
</div></div>
<div class="messageTextEndMarker">&nbsp;</div>
</blockquote>
</article>]]></description>
                <author><![CDATA[vjrhymes]]></author>
                </item>

                
                <item>
                <title><![CDATA[【UPSCALED】Hoobastank - The Reason (2160p)]]></title>
                <link><![CDATA[https://sharemania.us/threads/hoobastank-the-reason-2160p.249329/]]></link>
                <description><![CDATA[<article>
<blockquote class="messageText SelectQuoteContainer ugc baseHtml">
<div style="text-align: center"><a href="https://ibb.co/hg4Gnxf" target="_blank" class="externalLink" rel="nofollow"><img src="https://i.ibb.co/ZfFQwRm/Hoobastank-The-Reason-1-chf3-iris2-1-mp4-thumbs.jpg" class="bbCodeImage LbImage" alt="[​IMG]" data-url="https://i.ibb.co/ZfFQwRm/Hoobastank-The-Reason-1-chf3-iris2-1-mp4-thumbs.jpg"></a><br>
<a href="https://ibb.co/ByNGvdK" target="_blank" class="externalLink" rel="nofollow"><img src="https://i.ibb.co/1r6MBhJ/Hoobastank-The-Reason-1-chf3-iris2-1-mp4-snapshot-00-09-136.jpg" class="bbCodeImage LbImage" alt="[​IMG]" data-url="https://i.ibb.co/1r6MBhJ/Hoobastank-The-Reason-1-chf3-iris2-1-mp4-snapshot-00-09-136.jpg"></a><br>
<a href="https://ibb.co/16Lm8rD" target="_blank" class="externalLink" rel="nofollow"><img src="https://i.ibb.co/vYHjZ37/Hoobastank-The-Reason-1-chf3-iris2-1-mp4-snapshot-00-16-211.jpg" class="bbCodeImage LbImage" alt="[​IMG]" data-url="https://i.ibb.co/vYHjZ37/Hoobastank-The-Reason-1-chf3-iris2-1-mp4-snapshot-00-16-211.jpg"></a><br>
<a href="https://ibb.co/y4nhxbK" target="_blank" class="externalLink" rel="nofollow"><img src="https://i.ibb.co/FHbsdjc/Hoobastank-The-Reason-1-chf3-iris2-1-mp4-snapshot-00-46-220.jpg" class="bbCodeImage LbImage" alt="[​IMG]" data-url="https://i.ibb.co/FHbsdjc/Hoobastank-The-Reason-1-chf3-iris2-1-mp4-snapshot-00-46-220.jpg"></a><br>
<br>
<div class="bbCodeBlock bbCodeVfcHH HiddenContent">
<div class="attribution type">Hidden Content:</div>
<blockquote>You must either reply or click 'Like' to see the hidden information contained here.</blockquote>
</div></div>
<div class="messageTextEndMarker">&nbsp;</div>
</blockquote>
</article>]]></description>
                <author><![CDATA[vjrhymes]]></author>
                </item>

                
                <item>
                <title><![CDATA[【Albums (lossless)】Q-Feel - Q-feel (1982) [Apple Lossless]]]></title>
                <link><![CDATA[https://sharemania.us/threads/q-feel-q-feel-1982-apple-lossless.249332/]]></link>
                <description><![CDATA[<article>
<blockquote class="messageText SelectQuoteContainer ugc baseHtml">
<div style="text-align: center"><img src="https://i.discogs.com/6pbx5aGgdDj353_j9_fmlz9r1uj6RTNCdLgZiIfPuhs/rs:fit/g:sm/q:90/h:600/w:600/czM6Ly9kaXNjb2dz/LWRhdGFiYXNlLWlt/YWdlcy9SLTEyNzkz/ODEtMTIwNTk2NjA3/NS5qcGVn.jpeg" class="bbCodeImage LbImage" alt="[​IMG]" data-url="https://i.discogs.com/6pbx5aGgdDj353_j9_fmlz9r1uj6RTNCdLgZiIfPuhs/rs:fit/g:sm/q:90/h:600/w:600/czM6Ly9kaXNjb2dz/LWRhdGFiYXNlLWlt/YWdlcy9SLTEyNzkz/ODEtMTIwNTk2NjA3/NS5qcGVn.jpeg" style=""> ​</div><br>
<div style="text-align: center"><b>Label:</b> <a href="https://www.discogs.com/label/2186-Jive" target="_blank" class="externalLink" rel="nofollow">Jive</a> – 1219-2-J<br>
<b>Format: </b><a href="https://www.discogs.com/search/?format_exact=CD" target="_blank" class="externalLink" rel="nofollow">CD</a>, Album, Reissue<br>
<b>Country:</b> <a href="https://www.discogs.com/search/?country=US" target="_blank" class="externalLink" rel="nofollow">US</a><br>
<b>Released:</b> <a href="https://www.discogs.com/search/?decade=1980&amp;year=1982" target="_blank" class="externalLink" rel="nofollow">1982</a><br>
<b>Genre:</b> <a href="https://www.discogs.com/genre/electronic" target="_blank" class="externalLink" rel="nofollow">Electronic</a>, <a href="https://www.discogs.com/genre/pop" target="_blank" class="externalLink" rel="nofollow">Pop</a><br>
<b>Style:</b> <a href="https://www.discogs.com/style/synth-pop" target="_blank" class="externalLink" rel="nofollow">Synth-pop</a><br>
<b><br>
1</b> Crosstalk 3:38<br>
<b>2</b> A New Science 4:41<br>
<b>3</b> Electric Feet (Rhythm Machine) 4:27<br>
<b>4</b> Go For It 5:45<br>
<b>5</b> Dancing In Heaven (Orbital Be-Bop) 6:07<br>
<b>6</b> Heroes Never Die 3:58<br>
<b>7</b> Time Waits For No One 4:02<br>
<b>8</b> Red Light Zone 5:00 <br>
<br>
<div class="bbCodeBlock bbCodeVfcHH HiddenContent">
<div class="attribution type">Hidden Content:</div>
<blockquote>You must reply before you can see the hidden data contained here.</blockquote>
</div></div><br>
<br>
<div style="text-align: center">​</div>
<div class="messageTextEndMarker">&nbsp;</div>
</blockquote>
</article>]]></description>
                <author><![CDATA[legolas1601]]></author>
                </item>

                </channel></rss>